<svg width="32" height="33" viewBox="0 0 32 33" fill="none" xmlns="http://www.w3.org/2000/svg">
<g clip-path="url(#clip0_1634_80)">
<path d="M20.0075 0.816406V2.81641H12.0074V0.816406H20.0075Z" fill="black"/>
<path d="M24.0075 4.81641H20.0075V2.81641H24.0075V4.81641Z" fill="black"/>
<path d="M26.0076 6.81641H24.0075V4.81641H26.0076V6.81641Z" fill="black"/>
<path d="M28.0076 8.81641H26.0076V6.81641H28.0076V8.81641Z" fill="black"/>
<path fill-rule="evenodd" clip-rule="evenodd" d="M30.0076 12.8164H28.0076V8.81641H30.0076V12.8164ZM30.0076 12.8164H32.0076V22.8164H30.0076V12.8164Z" fill="black"/>
<path d="M10.0074 4.81641V6.81641H2.00734V4.81641H10.0074Z" fill="black"/>
<path d="M2.00734 18.8164H0.00732422V6.81641H2.00734V18.8164Z" fill="black"/>
<path d="M4.00736 22.8164H2.00734V18.8164H4.00736V22.8164Z" fill="black"/>
<path d="M6.00738 24.8164H4.00736V22.8164H6.00738V24.8164Z" fill="black"/>
<path d="M8.00739 26.8164H6.00738V24.8164H8.00739V26.8164Z" fill="black"/>
<path d="M10.0074 28.8164H8.00739V26.8164H10.0074V28.8164Z" fill="black"/>
<path d="M14.0074 30.8164H10.0074V28.8164H14.0074V30.8164Z" fill="black"/>
<path d="M26.0076 30.8164V32.8164H14.0074V30.8164H26.0076Z" fill="black"/>
<path fill-rule="evenodd" clip-rule="evenodd" d="M20.0075 22.8164V20.8164H26.0076V22.8164H20.0075ZM26.0076 22.8164H28.0076V30.8164H26.0076V22.8164Z" fill="black"/>
<path d="M18.0075 24.8164V22.8164H20.0075V24.8164H18.0075Z" fill="black"/>
<path d="M14.0074 24.8164H18.0075V26.8164H14.0074V24.8164Z" fill="black"/>
<path fill-rule="evenodd" clip-rule="evenodd" d="M10.0074 20.8164H12.0074V22.8164H10.0074V20.8164ZM12.0074 22.8164H14.0074V24.8164H12.0074V22.8164Z" fill="black"/>
<path fill-rule="evenodd" clip-rule="evenodd" d="M8.00739 14.8164V18.8164H6.00738V14.8164H8.00739ZM8.00739 18.8164H10.0074V20.8164H8.00739V18.8164Z" fill="black"/>
<path d="M10.0074 12.8164V14.8164H8.00739V12.8164H10.0074Z" fill="black"/>
<path d="M10.0074 12.8164H12.0074V6.81641H10.0074V12.8164Z" fill="black"/>
<path d="M14.0074 6.81641V8.81641H20.0075V10.8164H22.0075V12.8164H24.0075V18.8164H26.0076V12.8164H24.0075V10.8164H22.0075V8.81641H20.0075V6.81641H14.0074Z" fill="black"/>
<path d="M2.00732 6.81641H10.0074V12.8164H8.00738V14.8164H6.00736V18.8164H8.00738V20.8164H10.0074V22.8164H12.0074V24.8164H14.0074V26.8164H18.0075V24.8164H20.0075V22.8164H26.0075V30.8164H14.0074V28.8164H10.0074V26.8164H8.00738V24.8164H6.00736V22.8164H4.00734V18.8164H2.00732V6.81641Z" fill="white"/>
</g>
<defs>
<clipPath id="clip0_1634_80">
<rect width="32.0003" height="32" fill="white" transform="translate(0.00732422 0.816406)"/>
</clipPath>
</defs>
</svg>
