<svg width="33" height="33" viewBox="0 0 33 33" fill="none" xmlns="http://www.w3.org/2000/svg">
<g clip-path="url(#clip0_1634_85)">
<path d="M20.3493 0.816406V2.81641H12.3492V0.816406H20.3493Z" fill="white"/>
<path d="M24.3493 4.81641H20.3493V2.81641H24.3493V4.81641Z" fill="white"/>
<path d="M26.3493 6.81641H24.3493V4.81641H26.3493V6.81641Z" fill="white"/>
<path d="M28.3494 8.81641H26.3493V6.81641H28.3494V8.81641Z" fill="white"/>
<path fill-rule="evenodd" clip-rule="evenodd" d="M30.3494 12.8164H28.3494V8.81641H30.3494V12.8164ZM30.3494 12.8164H32.3494V22.8164H30.3494V12.8164Z" fill="white"/>
<path d="M10.3492 4.81641V6.81641H2.34914V4.81641H10.3492Z" fill="white"/>
<path d="M2.34914 18.8164H0.349121V6.81641H2.34914V18.8164Z" fill="white"/>
<path d="M4.34916 22.8164H2.34914V18.8164H4.34916V22.8164Z" fill="white"/>
<path d="M6.34917 24.8164H4.34916V22.8164H6.34917V24.8164Z" fill="white"/>
<path d="M8.34919 26.8164H6.34917V24.8164H8.34919V26.8164Z" fill="white"/>
<path d="M10.3492 28.8164H8.34919V26.8164H10.3492V28.8164Z" fill="white"/>
<path d="M14.3492 30.8164H10.3492V28.8164H14.3492V30.8164Z" fill="white"/>
<path d="M26.3493 30.8164V32.8164H14.3492V30.8164H26.3493Z" fill="white"/>
<path fill-rule="evenodd" clip-rule="evenodd" d="M20.3493 22.8164V20.8164H26.3493V22.8164H20.3493ZM26.3493 22.8164H28.3494V30.8164H26.3493V22.8164Z" fill="white"/>
<path d="M18.3493 24.8164V22.8164H20.3493V24.8164H18.3493Z" fill="white"/>
<path d="M14.3492 24.8164H18.3493V26.8164H14.3492V24.8164Z" fill="white"/>
<path fill-rule="evenodd" clip-rule="evenodd" d="M10.3492 20.8164H12.3492V22.8164H10.3492V20.8164ZM12.3492 22.8164H14.3492V24.8164H12.3492V22.8164Z" fill="white"/>
<path fill-rule="evenodd" clip-rule="evenodd" d="M8.34919 14.8164V18.8164H6.34917V14.8164H8.34919ZM8.34919 18.8164H10.3492V20.8164H8.34919V18.8164Z" fill="white"/>
<path d="M10.3492 12.8164V14.8164H8.34919V12.8164H10.3492Z" fill="white"/>
<path d="M10.3492 12.8164H12.3492V6.81641H10.3492V12.8164Z" fill="white"/>
<path d="M14.3492 6.81641V8.81641H20.3493V10.8164H22.3493V12.8164H24.3493V18.8164H26.3493V12.8164H24.3493V10.8164H22.3493V8.81641H20.3493V6.81641H14.3492Z" fill="white"/>
<path d="M2.34912 6.81641H10.3492V12.8164H8.34917V14.8164H6.34916V18.8164H8.34917V20.8164H10.3492V22.8164H12.3492V24.8164H14.3492V26.8164H18.3493V24.8164H20.3493V22.8164H26.3493V30.8164H14.3492V28.8164H10.3492V26.8164H8.34917V24.8164H6.34916V22.8164H4.34914V18.8164H2.34912V6.81641Z" fill="black"/>
</g>
<defs>
<clipPath id="clip0_1634_85">
<rect width="32.0003" height="32" fill="white" transform="translate(0.349121 0.816406)"/>
</clipPath>
</defs>
</svg>
