<svg width="32" height="32" viewBox="0 0 32 32" fill="none" xmlns="http://www.w3.org/2000/svg">
<g clip-path="url(#clip0_1634_82)">
<path d="M26.5459 8.65232H28.4659V6.73242H26.5459V8.65232Z" fill="black"/>
<path d="M26.5459 25.9314H28.4659V24.0115H26.5459V25.9314Z" fill="black"/>
<path d="M28.4659 24.0115H30.3858V20.1717H28.4659V24.0115Z" fill="black"/>
<path d="M32.3058 12.4921H30.3858V20.1717H32.3058V12.4921Z" fill="black"/>
<path d="M30.3858 8.65232H28.4659V12.4921H30.3858V8.65232Z" fill="black"/>
<path d="M12.7335 14.3562H17.5966V18.2844H12.7335V14.3562Z" fill="white"/>
<path d="M10.1124 10.5723H13.7611V22.0919H10.1792V24.0119H6.43016V25.9318H2.0127V6.73242H6.53042V8.65236H10.1124V10.5723Z" fill="white"/>
<path d="M10.8018 12.5025H15.665V20.268H10.8018V12.5025Z" fill="white"/>
<path d="M19.5054 10.5732H21.4253V8.65332H19.5054V10.5732Z" fill="black"/>
<path d="M21.4253 12.4931H23.3453V10.5732H21.4253V12.4931Z" fill="black"/>
<path d="M21.4253 22.0926H23.3453V20.1727H21.4253V22.0926Z" fill="black"/>
<path d="M19.5054 24.0125H21.4253V22.0926H19.5054V24.0125Z" fill="black"/>
<path d="M25.2653 12.4931H23.3453V20.1727H25.2653V12.4931Z" fill="black"/>
<path d="M15.6654 14.4127H17.5854V12.4928H15.6654V14.4127Z" fill="black"/>
<path d="M15.6654 20.1724H17.5854V18.2525H15.6654V20.1724Z" fill="black"/>
<path d="M19.5053 14.4127H17.5854V18.2525H19.5053V14.4127Z" fill="black"/>
<path d="M6.06556 25.9324V27.8523H2.22563V25.9324H6.06556Z" fill="black"/>
<path d="M9.90549 24.0125V25.9324H6.06556V24.0125H9.90549Z" fill="black"/>
<path d="M13.7454 22.0926V24.0125H9.90549V22.0926H13.7454Z" fill="black"/>
<path d="M9.90549 10.5732V8.65328H13.7454V10.5732H9.90549Z" fill="black"/>
<path d="M6.06556 8.65328V6.73338H9.90549V8.65328H6.06556Z" fill="black"/>
<path d="M2.22563 6.73338V4.81348H6.06556V6.73338H2.22563Z" fill="black"/>
<path d="M2.22563 25.9324H0.305664V6.73338H2.22563V25.9324Z" fill="black"/>
<path d="M13.7265 10.5642H15.6653V12.503H13.7265V10.5642Z" fill="black"/>
<path d="M13.7265 20.1689H15.6653V22.1077H13.7265V20.1689Z" fill="black"/>
</g>
<defs>
<clipPath id="clip0_1634_82">
<rect width="32" height="32" fill="white"/>
</clipPath>
</defs>
</svg>
