<svg width="33" height="32" viewBox="0 0 33 32" fill="none" xmlns="http://www.w3.org/2000/svg">
<g clip-path="url(#clip0_1634_89)">
<path d="M26.8877 8.65232H28.8077V6.73242H26.8877V8.65232Z" fill="white"/>
<path d="M26.8877 25.9314H28.8077V24.0115H26.8877V25.9314Z" fill="white"/>
<path d="M28.8077 24.0115H30.7276V20.1717H28.8077V24.0115Z" fill="white"/>
<path d="M32.6476 12.4921H30.7276V20.1717H32.6476V12.4921Z" fill="white"/>
<path d="M30.7276 8.65232H28.8077V12.4921H30.7276V8.65232Z" fill="white"/>
<path d="M13.0753 14.3562H17.9384V18.2844H13.0753V14.3562Z" fill="black"/>
<path d="M10.4542 10.5723H14.1029V22.0919H10.521V24.0119H6.77195V25.9318H2.35449V6.73242H6.87222V8.65236H10.4542V10.5723Z" fill="black"/>
<path d="M11.1436 12.5025H16.0068V20.268H11.1436V12.5025Z" fill="black"/>
<path d="M19.8472 10.5732H21.7671V8.65332H19.8472V10.5732Z" fill="white"/>
<path d="M21.7671 12.4931H23.6871V10.5732H21.7671V12.4931Z" fill="white"/>
<path d="M21.7671 22.0926H23.6871V20.1727H21.7671V22.0926Z" fill="white"/>
<path d="M19.8472 24.0125H21.7671V22.0926H19.8472V24.0125Z" fill="white"/>
<path d="M25.6071 12.4931H23.6871V20.1727H25.6071V12.4931Z" fill="white"/>
<path d="M16.0072 14.4127H17.9271V12.4928H16.0072V14.4127Z" fill="white"/>
<path d="M16.0072 20.1724H17.9271V18.2525H16.0072V20.1724Z" fill="white"/>
<path d="M19.8471 14.4127H17.9271V18.2525H19.8471V14.4127Z" fill="white"/>
<path d="M6.40736 25.9324V27.8523H2.56743V25.9324H6.40736Z" fill="white"/>
<path d="M10.2473 24.0125V25.9324H6.40736V24.0125H10.2473Z" fill="white"/>
<path d="M14.0872 22.0926V24.0125H10.2473V22.0926H14.0872Z" fill="white"/>
<path d="M10.2473 10.5732V8.65328H14.0872V10.5732H10.2473Z" fill="white"/>
<path d="M6.40736 8.65328V6.73338H10.2473V8.65328H6.40736Z" fill="white"/>
<path d="M2.56743 6.73338V4.81348H6.40736V6.73338H2.56743Z" fill="white"/>
<path d="M2.56743 25.9324H0.647461V6.73338H2.56743V25.9324Z" fill="white"/>
<path d="M14.0683 10.5642H16.0071V12.503H14.0683V10.5642Z" fill="white"/>
<path d="M14.0683 20.1689H16.0071V22.1077H14.0683V20.1689Z" fill="white"/>
</g>
<defs>
<clipPath id="clip0_1634_89">
<rect width="32" height="32" fill="white" transform="translate(0.341797)"/>
</clipPath>
</defs>
</svg>
