<!DOCTYPE svg PUBLIC "-//W3C//DTD SVG 1.1//EN" "http://www.w3.org/Graphics/SVG/1.1/DTD/svg11.dtd">
<!-- Uploaded to: SVG Repo, www.svgrepo.com, Transformed by: SVG Repo Mixer Tools -->
<svg fill="#ffffff" version="1.1" id="Layer_1" xmlns="http://www.w3.org/2000/svg" xmlns:xlink="http://www.w3.org/1999/xlink" viewBox="0 0 512 512" xml:space="preserve" width="64px" height="64px">
<g id="SVGRepo_bgCarrier" stroke-width="0"/>
<g id="SVGRepo_tracerCarrier" stroke-linecap="round" stroke-linejoin="round"/>
<g id="SVGRepo_iconCarrier"> <g> <g> <rect x="166.957" y="155.826" width="33.391" height="122.435"/> </g> </g> <g> <g> <rect x="378.435" y="155.826" width="33.391" height="122.435"/> </g> </g> <g> <g> <rect x="233.739" y="89.044" width="111.304" height="33.391"/> </g> </g> <g> <g> <rect x="200.348" y="122.435" width="33.391" height="33.391"/> </g> </g> <g> <g> <rect x="345.043" y="122.435" width="33.391" height="33.391"/> </g> </g> <g> <g> <polygon points="345.043,278.261 345.043,311.652 311.652,311.652 311.652,345.043 378.435,345.043 378.435,278.261 "/> </g> </g> <g> <g> <polygon points="378.435,345.043 378.435,378.435 200.348,378.435 200.348,345.043 166.957,345.043 166.957,411.826 411.826,411.826 411.826,345.043 "/> </g> </g> <g> <g> <polygon points="233.739,311.652 233.739,278.261 200.348,278.261 200.348,345.043 267.13,345.043 267.13,311.652 "/> </g> </g> <g> <g> <path d="M89.044,0v33.391H55.652v33.391h33.391v33.391H55.652v33.391h33.391v66.783H55.652v33.391h33.391v33.391H55.652v33.391 h33.391v77.913H55.652v33.391h33.391v33.391H55.652v33.391h33.391V512h400.696V0H89.044z M456.348,478.609H122.435V33.391h333.913 V478.609z"/> </g> </g> <g> <g> <rect x="22.261" y="66.783" width="33.391" height="33.391"/> </g> </g> <g> <g> <rect x="22.261" y="233.739" width="33.391" height="33.391"/> </g> </g> <g> <g> <rect x="22.261" y="411.826" width="33.391" height="33.391"/> </g> </g> </g>
</svg>