<svg width="33" height="32" viewBox="0 0 33 32" fill="none" xmlns="http://www.w3.org/2000/svg">
<g clip-path="url(#clip0_1634_83)">
<path d="M18.1207 15.8162H13.7585V20.1784V26.7217H18.1207V15.8162Z" fill="black"/>
<path d="M26.8449 31.0839V26.7217L18.1207 26.7217L18.1205 31.0839H26.8449Z" fill="black"/>
<path d="M26.8449 15.8164V11.4542H18.1205L18.1207 15.8162L26.8449 15.8164Z" fill="black"/>
<path d="M13.7584 4.91133L13.7585 15.8162H18.1207L18.1205 11.4542L18.1206 4.91133H13.7584Z" fill="black"/>
<path d="M5.0344 15.8164V20.1786L13.7585 20.1784V15.8162L5.0344 15.8164Z" fill="black"/>
<path d="M5.03428 0.54893V4.91111L13.7584 4.91133L13.7586 0.54893H5.03428Z" fill="black"/>
<path fill-rule="evenodd" clip-rule="evenodd" d="M4.30176 -0.183594H14.4912L14.491 4.1788H18.8532L18.853 10.7217H27.5774V16.5489L18.8532 16.5487V25.9891L27.5774 25.9892V31.8164H17.388L17.3881 27.4542H13.026V20.9109L4.30188 20.9111V15.0839L13.026 15.0837L13.0259 5.64383L4.30176 5.64362V-0.183594ZM14.491 5.64385L14.491 15.0837H17.3881L17.3881 5.64385H14.491ZM18.8532 15.0837L18.8531 12.1867H26.1123V15.0838L18.8532 15.0837ZM13.026 16.5487L5.76693 16.5489V19.446L13.026 19.4459V16.5487ZM14.491 16.5487H17.3881V25.9891H14.491V16.5487ZM13.026 4.17879L13.0261 1.28145H5.7668V4.17861L13.026 4.17879ZM18.8532 27.4542L18.8531 30.3514H26.1123V27.4542L18.8532 27.4542Z" fill="white"/>
</g>
<defs>
<clipPath id="clip0_1634_83">
<rect width="32" height="32" fill="white" transform="translate(0.341797)"/>
</clipPath>
</defs>
</svg>
