<svg width="24" height="34" viewBox="0 0 24 34" fill="none" xmlns="http://www.w3.org/2000/svg">
<path d="M14.3803 23.8096V21.4286V19.0477V16.6667H9.61841V19.0477V21.4286V23.8096V26.1905V28.5715H14.3803V26.1905V23.8096Z" fill="black"/>
<path d="M16.7613 33.3334H19.1423H21.5232H23.9042V28.5715H21.5232H19.1423H16.7613H14.3804V33.3334H16.7613Z" fill="black"/>
<path d="M19.1423 16.6669H21.5232H23.9042V11.905H21.5232H19.1423H16.7613H14.3804V16.6669H16.7613H19.1423Z" fill="black"/>
<path d="M9.95174 7.14316V5.09554H14.047V7.14316V9.52411V11.9051V14.286V16.3336H9.95174V14.286V11.9051V9.52411V7.14316Z" fill="white" stroke="black" stroke-width="0.666667"/>
<path d="M2.47592 17.0003H4.85687H7.23782H9.28544V21.0956H7.23782H4.85687H2.47592H0.428304V17.0003H2.47592Z" fill="white" stroke="black" stroke-width="0.666667"/>
<path d="M4.85687 0.333577H7.23782H9.28544V4.42881H7.23782H4.85687H2.47592H0.428304V0.333577H2.47592H4.85687Z" fill="white" stroke="black" stroke-width="0.666667"/>
</svg>
