<svg width="32" height="32" viewBox="0 0 32 32" fill="none" xmlns="http://www.w3.org/2000/svg">
<g clip-path="url(#clip0_1634_81)">
<path d="M17.7789 15.8162H13.4167V20.1784V26.7217H17.7789V15.8162Z" fill="white"/>
<path d="M26.5031 31.0839V26.7217L17.7789 26.7217L17.7787 31.0839H26.5031Z" fill="white"/>
<path d="M26.5031 15.8164V11.4542H17.7787L17.7789 15.8162L26.5031 15.8164Z" fill="white"/>
<path d="M13.4166 4.91133L13.4167 15.8162H17.7789L17.7787 11.4542L17.7788 4.91133H13.4166Z" fill="white"/>
<path d="M4.69261 15.8164V20.1786L13.4167 20.1784V15.8162L4.69261 15.8164Z" fill="white"/>
<path d="M4.69248 0.54893V4.91111L13.4166 4.91133L13.4169 0.54893H4.69248Z" fill="white"/>
<path fill-rule="evenodd" clip-rule="evenodd" d="M3.95996 -0.183594H14.1494L14.1492 4.1788H18.5114L18.5112 10.7217H27.2356V16.5489L18.5114 16.5487V25.9891L27.2356 25.9892V31.8164H17.0462L17.0463 27.4542H12.6842V20.9109L3.96008 20.9111V15.0839L12.6842 15.0837L12.6841 5.64383L3.95996 5.64362V-0.183594ZM14.1492 5.64385L14.1492 15.0837H17.0463L17.0463 5.64385H14.1492ZM18.5114 15.0837L18.5113 12.1867H25.7705V15.0838L18.5114 15.0837ZM12.6842 16.5487L5.42513 16.5489V19.446L12.6842 19.4459V16.5487ZM14.1492 16.5487H17.0463V25.9891H14.1492V16.5487ZM12.6842 4.17879L12.6843 1.28145H5.42501V4.17861L12.6842 4.17879ZM18.5114 27.4542L18.5113 30.3514H25.7705V27.4542L18.5114 27.4542Z" fill="black"/>
</g>
<defs>
<clipPath id="clip0_1634_81">
<rect width="32" height="32" fill="white"/>
</clipPath>
</defs>
</svg>
