<!DOCTYPE svg PUBLIC "-//W3C//DTD SVG 1.1//EN" "http://www.w3.org/Graphics/SVG/1.1/DTD/svg11.dtd">
<!-- Uploaded to: SVG Repo, www.svgrepo.com, Transformed by: SVG Repo Mixer Tools -->
<svg fill="#ffffff" height="64px" width="64px" version="1.1" id="Layer_1" xmlns="http://www.w3.org/2000/svg" xmlns:xlink="http://www.w3.org/1999/xlink" viewBox="0 0 24 24" xml:space="preserve">
<g id="SVGRepo_bgCarrier" stroke-width="0"/>
<g id="SVGRepo_tracerCarrier" stroke-linecap="round" stroke-linejoin="round"/>
<g id="SVGRepo_iconCarrier"> <g> <polygon points="21,4 20,4 20,3 20,2 19,2 18,2 18,3 18,4 17,4 16,4 16,5 16,6 17,6 18,6 18,7 18,8 19,8 20,8 20,7 20,6 21,6 22,6 22,5 22,4 "/> <path d="M21,14v-1h-6v-1h-1v-1h-1v-1h-1V9h-1V3h-1V2H4v1H3v1H2v7h1v1h1v1h1v1h1v1h1v1h1v1h1v1h1v1h1v1h1v1h1v1h7v-1h1v-1h1v-6H21z M20,18h-1v1h-1v1h-3v-1h-1v-1h-1v-1h-1v-1h-1v-1h-1v-1H9v-1H8v-1H7v-1H6v-1H5V9H4V6h1V5h1V4h2v1h1v2H8v3h1v1h1v1h1v1h1v1h1v1h1v1 h3v-1h2v1h1V18z"/> </g> </g>
</svg>