<svg width="33" height="33" fill="none" xmlns="http://www.w3.org/2000/svg"><g clip-path="url(#a)"><path d="M20.35.816v2h-8v-2h8Zm4 4h-4v-2h4v2Zm2 2h-2v-2h2v2Zm2 2h-2v-2h2v2Z" fill="#fff"/><path fill-rule="evenodd" clip-rule="evenodd" d="M30.35 12.816h-2v-4h2v4Zm0 0h2v10h-2v-10Z" fill="#fff"/><path d="M10.35 4.816v2h-8v-2h8Z" fill="#fff"/><path d="M2.35 18.816h-2v-12h2v12Zm2 4h-2v-4h2v4Zm2 2h-2v-2h2v2Zm2 2h-2v-2h2v2Zm2 2h-2v-2h2v2Zm4 2h-4v-2h4v2Zm12 0v2h-12v-2h12Z" fill="#fff"/><path fill-rule="evenodd" clip-rule="evenodd" d="M20.35 22.816v-2h6v2h-6Zm6 0h2v8h-2v-8Z" fill="#fff"/><path d="M18.35 24.816v-2h2v2h-2Zm-4 0h4v2h-4v-2Z" fill="#fff"/><path fill-rule="evenodd" clip-rule="evenodd" d="M10.35 20.816h2v2h-2v-2Zm2 2h2v2h-2v-2Zm-4-8v4h-2v-4h2Zm0 4h2v2h-2v-2Z" fill="#fff"/><path d="M10.35 12.816v2h-2v-2h2Zm0 0h2v-6h-2v6Zm4-6v2h6v2h2v2h2v6h2v-6h-2v-2h-2v-2h-2v-2h-6Z" fill="#fff"/><path d="M2.35 6.816h8v6h-2v2h-2v4h2v2h2v2h2v2h2v2h4v-2h2v-2h6v8h-12v-2h-4v-2h-2v-2h-2v-2h-2v-4h-2v-12Z" fill="#000"/></g><defs><clipPath id="a"><path fill="#fff" transform="translate(.35 .816)" d="M0 0h32v32H0z"/></clipPath></defs></svg>