<svg width="32" height="33" fill="none" xmlns="http://www.w3.org/2000/svg"><g clip-path="url(#a)"><path d="M20.008.816v2h-8v-2h8Zm4 4h-4v-2h4v2Zm2 2h-2v-2h2v2Zm2 2h-2v-2h2v2Z" fill="#000"/><path fill-rule="evenodd" clip-rule="evenodd" d="M30.008 12.816h-2v-4h2v4Zm0 0h2v10h-2v-10Z" fill="#000"/><path d="M10.007 4.816v2h-8v-2h8Z" fill="#000"/><path d="M2.007 18.816h-2v-12h2v12Zm2 4h-2v-4h2v4Zm2 2h-2v-2h2v2Zm2 2h-2v-2h2v2Zm2 2h-2v-2h2v2Zm4 2h-4v-2h4v2Zm12.001 0v2h-12v-2h12Z" fill="#000"/><path fill-rule="evenodd" clip-rule="evenodd" d="M20.008 22.816v-2h6v2h-6Zm6 0h2v8h-2v-8Z" fill="#000"/><path d="M18.008 24.816v-2h2v2h-2Zm-4.001 0h4v2h-4v-2Z" fill="#000"/><path fill-rule="evenodd" clip-rule="evenodd" d="M10.007 20.816h2v2h-2v-2Zm2 2h2v2h-2v-2Zm-4-8v4h-2v-4h2Zm0 4h2v2h-2v-2Z" fill="#000"/><path d="M10.007 12.816v2h-2v-2h2Zm0 0h2v-6h-2v6Zm4-6v2h6v2h2v2h2v6h2v-6h-2v-2h-2v-2h-2v-2h-6Z" fill="#000"/><path d="M2.007 6.816h8v6h-2v2h-2v4h2v2h2v2h2v2h2v2h4v-2h2v-2h6v8h-12v-2h-4v-2h-2v-2h-2v-2h-2v-4h-2v-12Z" fill="#fff"/></g><defs><clipPath id="a"><path fill="#fff" transform="translate(.007 .816)" d="M0 0h32v32H0z"/></clipPath></defs></svg>