<svg width="10" height="9" fill="none" xmlns="http://www.w3.org/2000/svg"><path d="M1.889 2.333h.444a.889.889 0 0 0 .89-.889A.444.444 0 0 1 3.666 1h2.666a.444.444 0 0 1 .445.444.889.889 0 0 0 .889.89h.444a.889.889 0 0 1 .89.887v4a.889.889 0 0 1-.889.89H1.89a.889.889 0 0 1-.89-.89v-4a.889.889 0 0 1 .889-.889Z" stroke="#A6A6A8" stroke-linecap="round" stroke-linejoin="round"/><path d="M3.667 5a1.333 1.333 0 1 0 2.666 0 1.333 1.333 0 0 0-2.666 0Z" stroke="#A6A6A8" stroke-linecap="round" stroke-linejoin="round"/></svg>