<svg width="38" height="27" fill="none" xmlns="http://www.w3.org/2000/svg"><path d="M22.703 7h2.223V4.777h-2.223V7Zm2.223 2.222h2.222V7h-2.222v2.222Zm0 11.111h2.222V18.11h-2.222v2.222Zm-2.223 2.222h2.223v-2.222h-2.223v2.222Zm-4.444-11.111h2.222V9.222H18.26v2.222Zm0 6.666h2.222v-2.22H18.26v2.222ZM29.37 9.222h-2.222v8.889h2.222V9.22Zm-6.667 2.222h-2.222v4.444h2.222v-4.444Zm8.149-6.667h2.223V2.555h-2.223v2.222Zm0 20h2.223v-2.222h-2.223v2.222Zm2.223-2.222h2.222v-4.444h-2.222v4.444ZM37.52 9.222h-2.223v8.889h2.222V9.22Zm-2.223-4.445h-2.222v4.445h2.222V4.777Z" fill="#fff"/><path d="M11.346 6.753h4.444v13.334h-4.444v2.222H6.9v2.222H2.457V2.31H6.9v2.22h4.445v2.222Z" fill="#000"/><path d="M7.147 24.778V27H2.703v-2.222h4.444Zm4.445-2.223v2.223H7.147v-2.223h4.445Z" fill="#fff"/><path d="M16.037 20.333v2.223h-4.445v-2.223h4.444Zm0-13.333h2.222v13.333h-2.223V7Zm-4.445 0V4.778h4.444V7h-4.444ZM7.147 4.778V2.555h4.445v2.223H7.147ZM2.703 2.555V.333h4.444v2.222H2.703Zm0 22.223H.48V2.555h2.223v22.223Z" fill="#fff"/><path fill="#000" d="M14.802 11.692h5.432v3.951h-5.432z"/></svg>