<svg width="33" height="32" fill="none" xmlns="http://www.w3.org/2000/svg"><g clip-path="url(#a)"><path d="M26.888 8.652h1.92v-1.92h-1.92v1.92Zm0 17.279h1.92v-1.92h-1.92v1.92Zm1.92-1.919h1.92v-3.84h-1.92v3.84Zm3.84-11.52h-1.92v7.68h1.92v-7.68Zm-1.92-3.84h-1.92v3.84h1.92v-3.84Z" fill="#fff"/><path d="M13.075 14.356h4.863v3.928h-4.863v-3.928Z" fill="#000"/><path d="M10.454 10.572h3.649v11.52H10.52v1.92H6.77v1.92H2.355v-19.2h4.518v1.92h3.582v1.92Z" fill="#000"/><path d="M11.144 12.502h4.863v7.766h-4.863v-7.766Z" fill="#000"/><path d="M19.847 10.573h1.92v-1.92h-1.92v1.92Zm1.92 1.92h1.92v-1.92h-1.92v1.92Zm0 9.6h1.92v-1.92h-1.92v1.92Zm-1.92 1.919h1.92v-1.92h-1.92v1.92Zm5.76-11.519h-1.92v7.68h1.92v-7.68Zm-9.6 1.92h1.92v-1.92h-1.92v1.92Zm0 5.759h1.92v-1.92h-1.92v1.92Zm3.84-5.759h-1.92v3.84h1.92v-3.84ZM6.407 25.932v1.92h-3.84v-1.92h3.84Zm3.84-1.92v1.92h-3.84v-1.92h3.84Zm3.84-1.919v1.92h-3.84v-1.92h3.84Zm-3.84-11.52v-1.92h3.84v1.92h-3.84Zm-3.84-1.92v-1.92h3.84v1.92h-3.84Zm-3.84-1.92v-1.92h3.84v1.92h-3.84Zm0 19.199H.647V6.733h1.92v19.2Z" fill="#fff"/><path d="M14.068 10.564h1.94v1.939h-1.94v-1.939Zm0 9.605h1.94v1.939h-1.94v-1.94Z" fill="#fff"/></g><defs><clipPath id="a"><path fill="#fff" transform="translate(.342)" d="M0 0h32v32H0z"/></clipPath></defs></svg>