<svg width="38" height="27" viewBox="0 0 38 27" fill="none" xmlns="http://www.w3.org/2000/svg">
<path d="M22.7034 6.99957H24.9257V4.77734H22.7034V6.99957Z" fill="white"/>
<path d="M24.9257 9.22179H27.148V6.99957H24.9257V9.22179Z" fill="white"/>
<path d="M24.9257 20.3329H27.148V18.1107H24.9257V20.3329Z" fill="white"/>
<path d="M22.7034 22.5551H24.9257V20.3329H22.7034V22.5551Z" fill="white"/>
<path d="M18.2588 11.444H20.4811V9.22179H18.2588V11.444Z" fill="white"/>
<path d="M18.2588 18.1107H20.4811V15.8885H18.2588V18.1107Z" fill="white"/>
<path d="M29.3703 9.22179H27.148V18.1107H29.3703V9.22179Z" fill="white"/>
<path d="M22.7034 11.444H20.4811V15.8885H22.7034V11.444Z" fill="white"/>
<path d="M30.8525 4.7774H33.0748V2.55518H30.8525V4.7774Z" fill="white"/>
<path d="M30.8525 24.7774H33.0748V22.5552H30.8525V24.7774Z" fill="white"/>
<path d="M33.0748 22.5552H35.2971V18.1107H33.0748V22.5552Z" fill="white"/>
<path d="M37.5194 9.22184H35.2971V18.1107H37.5194V9.22184Z" fill="white"/>
<path d="M35.2971 4.7774H33.0748V9.22184H35.2971V4.7774Z" fill="white"/>
<path d="M11.3457 6.75328H15.7903V20.0866H11.3457V22.3088H6.90109V24.5311H2.4565V2.30884H6.90109V4.53106H11.3457V6.75328Z" fill="black"/>
<path d="M7.1473 24.7777V26.9999H2.70271V24.7777H7.1473Z" fill="white"/>
<path d="M11.5919 22.5555V24.7777H7.1473V22.5555H11.5919Z" fill="white"/>
<path d="M16.0365 20.3333V22.5555H11.5919V20.3333H16.0365Z" fill="white"/>
<path d="M16.0365 6.99992H18.2588V20.3333H16.0365V6.99992Z" fill="white"/>
<path d="M11.5919 6.99992V4.7777H16.0365V6.99992H11.5919Z" fill="white"/>
<path d="M7.1473 4.7777V2.55547H11.5919V4.7777H7.1473Z" fill="white"/>
<path d="M2.70271 2.55547V0.333252H7.1473V2.55547H2.70271Z" fill="white"/>
<path d="M2.70271 24.7777H0.480408V2.55547H2.70271V24.7777Z" fill="white"/>
<rect x="14.8022" y="11.6917" width="5.43228" height="3.95062" fill="black"/>
</svg>
