<svg fill="#fff" xmlns="http://www.w3.org/2000/svg" viewBox="0 0 512 512" xml:space="preserve" width="64" height="64"><path d="M166.957 155.826h33.391v122.435h-33.391zm211.478 0h33.391v122.435h-33.391zM233.739 89.044h111.304v33.391H233.739zm-33.391 33.391h33.391v33.391h-33.391zm144.695 0h33.391v33.391h-33.391zm0 155.826v33.391h-33.391v33.391h66.783v-66.782zm33.392 66.782v33.392H200.348v-33.392h-33.391v66.783h244.869v-66.783zm-144.696-33.391v-33.391h-33.391v66.782h66.782v-33.391z"/><path d="M89.044 0v33.391H55.652v33.391h33.391v33.391H55.652v33.391h33.391v66.783H55.652v33.391h33.391v33.391H55.652v33.391h33.391v77.913H55.652v33.391h33.391v33.391H55.652v33.391h33.391V512h400.696V0H89.044zm367.304 478.609H122.435V33.391h333.913v445.218zM22.261 66.783h33.391v33.391H22.261zm0 166.956h33.391v33.391H22.261zm0 178.087h33.391v33.391H22.261z"/></svg>