<svg width="33" height="32" fill="none" xmlns="http://www.w3.org/2000/svg"><g clip-path="url(#a)"><path d="M18.12 15.816h-4.362v10.906h4.363V15.816Zm8.725 15.268v-4.362H18.12v4.362h8.724Zm0-15.268v-4.362H18.12v4.362h8.724Z" fill="#000"/><path d="M13.758 4.911v10.905h4.363V4.911h-4.363ZM5.034 15.816v4.363h8.724v-4.363H5.034Zm0-15.267V4.91h8.724V.55H5.035Z" fill="#000"/><path fill-rule="evenodd" clip-rule="evenodd" d="M4.302-.184h10.19L14.49 4.18h4.362v6.543h8.724v5.827h-8.724v9.44h8.724v5.827H17.388v-4.362h-4.362v-6.543H4.302v-5.827h8.724v-9.44H4.302V-.184ZM14.49 5.644v9.44h2.897v-9.44H14.49Zm4.362 9.44v-2.897h7.26v2.897h-7.26Zm-5.827 1.465h-7.26v2.897h7.26v-2.897Zm1.465 0h2.897v9.44H14.49v-9.44Zm-1.465-12.37V1.28h-7.26v2.9h7.26Zm5.827 23.275v2.897h7.26v-2.897h-7.26Z" fill="#fff"/></g><defs><clipPath id="a"><path fill="#fff" transform="translate(.342)" d="M0 0h32v32H0z"/></clipPath></defs></svg>