<svg width="32" height="32" fill="none" xmlns="http://www.w3.org/2000/svg"><g clip-path="url(#a)"><path d="M17.779 15.816h-4.362v10.906h4.362V15.816Zm8.724 15.268v-4.362H17.78v4.362h8.724Zm0-15.268v-4.362H17.78v4.362h8.724ZM13.417 4.911v10.905h4.362V4.911h-4.362ZM4.693 15.816v4.363h8.724v-4.363H4.693ZM4.692.549V4.91h8.725V.55H4.692Z" fill="#fff"/><path fill-rule="evenodd" clip-rule="evenodd" d="M3.96-.184h10.19V4.18h4.361v6.543h8.725v5.827H18.51v9.44h8.725v5.827h-10.19v-4.362h-4.362v-6.543H3.96v-5.827h8.724v-9.44H3.96V-.184Zm10.19 5.828v9.44h2.896v-9.44H14.15Zm4.361 9.44v-2.897h7.26v2.897h-7.26Zm-5.827 1.465H5.425v2.897h7.26v-2.897Zm1.465 0h2.897v9.44H14.15v-9.44Zm-1.465-12.37V1.28H5.425v2.9h7.26Zm5.827 23.275v2.897h7.26v-2.897h-7.26Z" fill="#000"/></g><defs><clipPath id="a"><path fill="#fff" d="M0 0h32v32H0z"/></clipPath></defs></svg>