<svg fill="#fff" width="64" height="64" viewBox="0 0 32 32" xmlns="http://www.w3.org/2000/svg"><path d="M31.078 1.366A1.252 1.252 0 0 0 30 .75H2A1.25 1.25 0 0 0 .91 2.613l-.003-.006 9.843 17.717V26c0 .486.278.908.684 1.114l.007.003 8 4a1.232 1.232 0 0 0 1.22-.058l-.005.003c.359-.223.594-.615.594-1.062v-9.677l9.842-17.717c.1-.175.159-.385.159-.609 0-.233-.064-.452-.176-.638l.003.006zm-12.17 18.027a1.235 1.235 0 0 0-.158.607v7.977l-5.5-2.75v-5.229c0-.222-.058-.431-.16-.612l.003.006L4.124 3.249h23.751z"/></svg>