<svg width="263" height="263" fill="none" xmlns="http://www.w3.org/2000/svg"><path fill="#1E1E1E" d="M0 0h263v263H0z"/><path fill="#000" d="M-1117-312H803V768h-1920z"/><path opacity=".3" fill="#000" stroke="#fff" stroke-width=".565" d="M-48.717-48.717h361.435v361.435H-48.717z"/><path d="M263.004.875H.875v262.13h262.129V.875Z" fill="#272727"/><g filter="url(#a)" fill="#fff"><path d="M143.925 167.889V131.94h-23.966v59.915h23.966v-23.966Zm11.983 47.933h35.949v-23.966h-47.932v23.966h11.983Zm11.983-83.88h23.966v-23.967h-47.932v23.967h23.966Z"/></g><g filter="url(#b)" fill="#D7DF23"><path d="M119.956 72.025v59.916h23.966V72.025h-23.966ZM95.988 131.94H72.02v23.966h47.935V131.94H95.988Zm11.983-83.881h-35.95v23.966h47.934V48.059h-11.983Z"/></g><defs><filter id="a" x="114.683" y="107.975" width="77.175" height="107.846" filterUnits="userSpaceOnUse" color-interpolation-filters="sRGB"><feFlood flood-opacity="0" result="BackgroundImageFix"/><feColorMatrix in="SourceAlpha" values="0 0 0 0 0 0 0 0 0 0 0 0 0 0 0 0 0 0 127 0" result="hardAlpha"/><feOffset dx="-5.276"/><feComposite in2="hardAlpha" operator="out"/><feColorMatrix values="0 0 0 0 0 0 0 0 0 0 0 0 0 0 0 0 0 0 0.25 0"/><feBlend in2="BackgroundImageFix" result="effect1_dropShadow_445_2"/><feBlend in="SourceGraphic" in2="effect1_dropShadow_445_2" result="shape"/></filter><filter id="b" x="66.745" y="48.059" width="77.177" height="107.847" filterUnits="userSpaceOnUse" color-interpolation-filters="sRGB"><feFlood flood-opacity="0" result="BackgroundImageFix"/><feColorMatrix in="SourceAlpha" values="0 0 0 0 0 0 0 0 0 0 0 0 0 0 0 0 0 0 127 0" result="hardAlpha"/><feOffset dx="-5.276"/><feComposite in2="hardAlpha" operator="out"/><feColorMatrix values="0 0 0 0 0 0 0 0 0 0 0 0 0 0 0 0 0 0 0.25 0"/><feBlend in2="BackgroundImageFix" result="effect1_dropShadow_445_2"/><feBlend in="SourceGraphic" in2="effect1_dropShadow_445_2" result="shape"/></filter></defs></svg>