<svg width="20" height="20" fill="none" xmlns="http://www.w3.org/2000/svg"><path d="M11.25 2.5h1.25V1.25h-1.25V2.5Zm-2.5 0H7.5V1.25h1.25V2.5Zm8.75 6.25h1.25V7.5H17.5v1.25Zm-15 0H1.25V7.5H2.5v1.25Zm15 3.75h1.25v-1.25H17.5v1.25Zm-15 0H1.25v-1.25H2.5v1.25Zm8.75 6.25h1.25V17.5h-1.25v1.25Zm-2.5 0H7.5V17.5h1.25v1.25Zm5-11.25H12.5v5h1.25v-5Zm-1.25 0V6.25h-5V7.5h5Zm-5 0H6.25v5H7.5v-5Zm5 6.25V12.5h-5v1.25h5Zm-8.75 2.5v1.25H7.5v-1.25H3.75Zm-1.25 0h1.25V12.5H2.5v3.75Zm-1.25-7.5H0v2.5h1.25v-2.5ZM2.5 7.5h1.25V3.75H2.5V7.5Zm5-3.75V2.5H3.75v1.25H7.5Zm3.75-2.5V0h-2.5v1.25h2.5ZM12.5 2.5v1.25h3.75V2.5H12.5Zm3.75 5h1.25V3.75h-1.25V7.5ZM20 8.75h-1.25v2.5H20v-2.5Zm-3.75 7.5h1.25V12.5h-1.25v3.75Zm0 1.25v-1.25H12.5v1.25h3.75Zm-5 2.5v-1.25h-2.5V20h2.5Z" fill="#fff"/></svg>