<svg width="16" height="16" viewBox="0 0 263 263" fill="none" xmlns="http://www.w3.org/2000/svg">
<rect width="263" height="263" fill="#1E1E1E"/>
<rect width="1920" height="1080" transform="translate(-1117 -312)" fill="black"/>
<rect opacity="0.3" x="-48.7173" y="-48.7173" width="361.435" height="361.435" fill="black" stroke="white" stroke-width="0.565402"/>
<path d="M263.004 0.875488H0.875V263.005H263.004V0.875488Z" fill="#272727"/>
<g filter="url(#filter0_d_445_2)">
<path d="M143.925 167.889V155.906V143.923V131.94H119.959V143.923V155.906V167.889V179.872V191.855H143.925V179.872V167.889Z" fill="white"/>
<path d="M155.908 215.822H167.891H179.874H191.857V191.856H179.874H167.891H155.908H143.925V215.822H155.908Z" fill="white"/>
<path d="M167.891 131.942H179.874H191.857V107.975H179.874H167.891H155.908H143.925V131.942H155.908H167.891Z" fill="white"/>
</g>
<g filter="url(#filter1_d_445_2)">
<path d="M119.956 72.0254V84.0084V95.9915V107.975V119.958V131.941H143.922V119.958V107.975V95.9915V84.0084V72.0254H119.956Z" fill="#D7DF23"/>
<path d="M95.9876 131.94H84.0045H72.0215V155.906H84.0045H95.9876H107.971H119.954V131.94H107.971H95.9876Z" fill="#D7DF23"/>
<path d="M107.971 48.0587H95.9876H84.0045H72.0215V72.0248H84.0045H95.9876H107.971H119.954V48.0587H107.971Z" fill="#D7DF23"/>
</g>
<defs>
<filter id="filter0_d_445_2" x="114.683" y="107.975" width="77.1748" height="107.846" filterUnits="userSpaceOnUse" color-interpolation-filters="sRGB">
<feFlood flood-opacity="0" result="BackgroundImageFix"/>
<feColorMatrix in="SourceAlpha" type="matrix" values="0 0 0 0 0 0 0 0 0 0 0 0 0 0 0 0 0 0 127 0" result="hardAlpha"/>
<feOffset dx="-5.27636"/>
<feComposite in2="hardAlpha" operator="out"/>
<feColorMatrix type="matrix" values="0 0 0 0 0 0 0 0 0 0 0 0 0 0 0 0 0 0 0.25 0"/>
<feBlend mode="normal" in2="BackgroundImageFix" result="effect1_dropShadow_445_2"/>
<feBlend mode="normal" in="SourceGraphic" in2="effect1_dropShadow_445_2" result="shape"/>
</filter>
<filter id="filter1_d_445_2" x="66.7451" y="48.0587" width="77.1767" height="107.847" filterUnits="userSpaceOnUse" color-interpolation-filters="sRGB">
<feFlood flood-opacity="0" result="BackgroundImageFix"/>
<feColorMatrix in="SourceAlpha" type="matrix" values="0 0 0 0 0 0 0 0 0 0 0 0 0 0 0 0 0 0 127 0" result="hardAlpha"/>
<feOffset dx="-5.27636"/>
<feComposite in2="hardAlpha" operator="out"/>
<feColorMatrix type="matrix" values="0 0 0 0 0 0 0 0 0 0 0 0 0 0 0 0 0 0 0.25 0"/>
<feBlend mode="normal" in2="BackgroundImageFix" result="effect1_dropShadow_445_2"/>
<feBlend mode="normal" in="SourceGraphic" in2="effect1_dropShadow_445_2" result="shape"/>
</filter>
</defs>
</svg>
